<svg xmlns="http://www.w3.org/2000/svg" preserveAspectRatio="xMinYMin meet" viewBox="0 0 500 500"><rect x="0" y="0" width="500" height="500" style="fill:#663"/><rect width="300" height="120" x="99" y="400" style="fill:#532"/><circle cx="190" cy="470" r="5" style="fill:#653"/><circle cx="310" cy="470" r="5" style="fill:#653"/><circle cx="100" cy="250" r="50" style="fill:#532"/><circle cx="100" cy="250" r="20" style="fill:#653"/><circle cx="400" cy="250" r="50" style="fill:#532"/><circle cx="400" cy="250" r="20" style="fill:#653"/><circle cx="250" cy="250" r="150" style="fill:#532"/><circle cx="250" cy="250" r="120" style="fill:#653"/><circle cx="200" cy="215" r="35" style="fill:#fff"/><circle cx="305" cy="222" r="31" style="fill:#fff"/><circle cx="200" cy="220" r="20" style="fill:#653"/><circle cx="300" cy="220" r="20" style="fill:#653"/><circle cx="200" cy="220" r="7" style="fill:#000"/><circle cx="300" cy="220" r="7" style="fill:#000"/><rect x="150" y="190" width="200" height="30" style="fill:#653"/><rect x="160" y="170" width="180" height="50" style="fill:#653"/><rect x="160" y="190" width="75" height="15" style="fill:#532"/><rect x="275" y="190" width="65" height="15" style="fill:#532"/><ellipse cx="250" cy="315" rx="84" ry="34" style="fill:#ffc"/><rect x="195" y="330" width="110" height="3" style="fill:#000"/><circle cx="268" cy="295" r="5" style="fill:#000"/><circle cx="232" cy="295" r="5" style="fill:#000"/><line x1="175" y1="307" x2="175" y2="312" style="stroke:#000;stroke-width:2"/><line x1="200" y1="307" x2="200" y2="312" style="stroke:#000;stroke-width:2"/><line x1="225" y1="307" x2="225" y2="312" style="stroke:#000;stroke-width:2"/><line x1="250" y1="307" x2="250" y2="312" style="stroke:#000;stroke-width:2"/><line x1="275" y1="307" x2="275" y2="312" style="stroke:#000;stroke-width:2"/><line x1="300" y1="307" x2="300" y2="312" style="stroke:#000;stroke-width:2"/><line x1="325" y1="307" x2="325" y2="312" style="stroke:#000;stroke-width:2"/><line x1="187" y1="317" x2="187" y2="322" style="stroke:#000;stroke-width:2"/><line x1="212" y1="317" x2="212" y2="322" style="stroke:#000;stroke-width:2"/><line x1="237" y1="317" x2="237" y2="322" style="stroke:#000;stroke-width:2"/><line x1="262" y1="317" x2="262" y2="322" style="stroke:#000;stroke-width:2"/><line x1="287" y1="317" x2="287" y2="322" style="stroke:#000;stroke-width:2"/><line x1="312" y1="317" x2="312" y2="322" style="stroke:#000;stroke-width:2"/><circle cx="100" cy="290" r="14" style="fill:#999"/><circle cx="100" cy="290" r="4" style="fill:#000"/><rect width="200" height="99" x="150" y="40" style="fill:#00f"/><rect width="200" height="33" x="150" y="106" style="fill:#0f0"/><rect width="300" height="120" x="99" y="400" style="fill:#f00"/><rect width="50" height="55" x="280" y="430" style="fill:#f0f"/></svg>