<svg xmlns="http://www.w3.org/2000/svg" preserveAspectRatio="xMinYMin meet" viewBox="0 0 500 500"><rect x="0" y="0" width="500" height="500" style="fill:#ccc"/><rect width="300" height="120" x="99" y="400" style="fill:#532"/><circle cx="190" cy="470" r="5" style="fill:#653"/><circle cx="310" cy="470" r="5" style="fill:#653"/><circle cx="100" cy="250" r="50" style="fill:#532"/><circle cx="100" cy="250" r="20" style="fill:#653"/><circle cx="400" cy="250" r="50" style="fill:#532"/><circle cx="400" cy="250" r="20" style="fill:#653"/><circle cx="250" cy="250" r="150" style="fill:#532"/><circle cx="250" cy="250" r="120" style="fill:#653"/><circle cx="200" cy="215" r="35" style="fill:#fff"/><circle cx="305" cy="222" r="31" style="fill:#fff"/><circle cx="200" cy="220" r="20" style="fill:#cef"/><circle cx="300" cy="220" r="20" style="fill:#cef"/><circle cx="200" cy="220" r="7" style="fill:#000"/><circle cx="300" cy="220" r="7" style="fill:#000"/><rect x="150" y="190" width="200" height="30" style="fill:#653"/><rect x="160" y="170" width="180" height="50" style="fill:#653"/><ellipse cx="250" cy="315" rx="84" ry="34" style="fill:#ffc"/><rect x="195" y="330" width="110" height="3" style="fill:#000"/><circle cx="268" cy="295" r="5" style="fill:#000"/><circle cx="232" cy="295" r="5" style="fill:#000"/><circle cx="100" cy="290" r="14" style="fill:#fe7"/><circle cx="100" cy="290" r="4" style="fill:#000"/><rect width="300" height="120" x="99" y="400" style="fill:#00f"/><rect width="50" height="55" x="280" y="430" style="fill:#f00"/></svg>